HIERARCHY
ROOT Hips
{
	OFFSET 0.000000 0.000000 0.000000
	CHANNELS 6 Xposition Yposition Zposition Xrotation Yrotation Zrotation
	JOINT LeftUpLeg_virtual
	{
		OFFSET 0.000000 0.000000 0.000000
		CHANNELS 3 Xrotation Yrotation Zrotation
		JOINT LeftUpLeg
		{
			OFFSET 15.427100 -6.655098 0.678600
			CHANNELS 3 Xrotation Yrotation Zrotation
			JOINT LeftLeg
			{
				OFFSET 4.081073 -39.591068 13.024000
				CHANNELS 3 Xrotation Yrotation Zrotation
				JOINT LeftFoot
				{
					OFFSET -4.081074 -37.707932 -15.979700
					CHANNELS 3 Xrotation Yrotation Zrotation
					JOINT LeftToeBase
					{
						OFFSET 5.346399 -15.068900 20.645000
						CHANNELS 3 Xrotation Yrotation Zrotation
						JOINT LeftToe_End
						{
							OFFSET 2.754700 0.931300 11.300900
							CHANNELS 3 Xrotation Yrotation Zrotation
							End Site
							{
								OFFSET 0 0 0
							}
						}
					}
				}
			}
		}
	}
	JOINT RightUpLeg_virtual
	{
		OFFSET 0.000000 0.000000 0.000000
		CHANNELS 3 Xrotation Yrotation Zrotation
		JOINT RightUpLeg
		{
			OFFSET -15.569500 -6.655098 0.678600
			CHANNELS 3 Xrotation Yrotation Zrotation
			JOINT RightLeg
			{
				OFFSET -4.081825 -39.591045 13.023800
				CHANNELS 3 Xrotation Yrotation Zrotation
				JOINT RightFoot
				{
					OFFSET 4.081824 -37.707954 -15.979600
					CHANNELS 3 Xrotation Yrotation Zrotation
					JOINT RightToeBase
					{
						OFFSET -5.346400 -15.068900 20.645000
						CHANNELS 3 Xrotation Yrotation Zrotation
						JOINT RightToe_End
						{
							OFFSET -2.754700 0.931300 11.300900
							CHANNELS 3 Xrotation Yrotation Zrotation
							End Site
							{
								OFFSET 0 0 0
							}
						}
					}
				}
			}
		}
	}
	JOINT Spine_virtual
	{
		OFFSET 0.000000 0.000000 0.000000
		CHANNELS 3 Xrotation Yrotation Zrotation
		JOINT Spine
		{
			OFFSET -0.279200 12.230698 -2.892100
			CHANNELS 3 Xrotation Yrotation Zrotation
			JOINT Spine1
			{
				OFFSET -0.232667 10.192268 -1.242267
				CHANNELS 3 Xrotation Yrotation Zrotation
				JOINT Spine1_split
				{
					OFFSET -0.232667 10.192268 -1.242267
					CHANNELS 3 Xrotation Yrotation Zrotation
					JOINT Spine2
					{
						OFFSET -0.232667 10.192268 -1.242267
						CHANNELS 3 Xrotation Yrotation Zrotation
						JOINT Neck_virtual
						{
							OFFSET 0.000000 0.000000 0.000000
							CHANNELS 3 Xrotation Yrotation Zrotation
							JOINT Neck
							{
								OFFSET -0.418800 17.814194 8.416900
								CHANNELS 3 Xrotation Yrotation Zrotation
								JOINT Head
								{
									OFFSET 0.000000 7.031097 3.806800
									CHANNELS 3 Xrotation Yrotation Zrotation
									JOINT HeadTop_End
									{
										OFFSET 0.000000 24.646606 12.978600
										CHANNELS 3 Xrotation Yrotation Zrotation
										End Site
										{
											OFFSET 0 0 0
										}
									}
								}
							}
						}
						JOINT LeftShoulder_virtual
						{
							OFFSET 0.000000 0.000000 0.000000
							CHANNELS 3 Xrotation Yrotation Zrotation
							JOINT LeftShoulder
							{
								OFFSET 8.476499 7.247704 -3.868750
								CHANNELS 3 Xrotation Yrotation Zrotation
								JOINT LeftShoulder_split
								{
									OFFSET 8.476499 7.247704 -3.868750
									CHANNELS 3 Xrotation Yrotation Zrotation
									JOINT LeftArm
									{
										OFFSET 9.308998 -2.777710 0.208600
										CHANNELS 3 Xrotation Yrotation Zrotation
										JOINT LeftForeArm
										{
											OFFSET 29.972298 0.000000 0.000000
											CHANNELS 3 Xrotation Yrotation Zrotation
											JOINT LeftHand
											{
												OFFSET 26.026505 0.000000 0.000000
												CHANNELS 3 Xrotation Yrotation Zrotation
												End Site
												{
													OFFSET 0 0 0
												}
											}
										}
									}
								}
							}
						}
						JOINT RightShoulder_virtual
						{
							OFFSET 0.000000 0.000000 0.000000
							CHANNELS 3 Xrotation Yrotation Zrotation
							JOINT RightShoulder
							{
								OFFSET -7.570500 7.247704 -3.868750
								CHANNELS 3 Xrotation Yrotation Zrotation
								JOINT RightShoulder_split
								{
									OFFSET -7.570500 7.247704 -3.868750
									CHANNELS 3 Xrotation Yrotation Zrotation
									JOINT RightArm
									{
										OFFSET -9.308998 -2.777710 0.208500
										CHANNELS 3 Xrotation Yrotation Zrotation
										JOINT RightForeArm
										{
											OFFSET -29.972300 0.000000 0.000000
											CHANNELS 3 Xrotation Yrotation Zrotation
											JOINT RightHand
											{
												OFFSET -26.026505 0.000000 0.000000
												CHANNELS 3 Xrotation Yrotation Zrotation
												End Site
												{
													OFFSET 0 0 0
												}
											}
										}
									}
								}
							}
						}
					}
				}
			}
		}
	}
}
MOTION
Frames: 4
Frame Time: 0.03333333
9.851144 88.943214 121.122284 0.000000 0.000000 0.000000 5.078493 1.108348 -1.398906 -43.884976 11.827478 7.257193 23.039266 -5.102457 9.965767 10.760950 -15.389596 -4.439454 3.191854 -3.033953 4.226002 0.000000 0.000000 0.000000 5.892542 2.970734 -1.262668 -5.859170 9.367618 6.204742 28.260739 1.264501 -1.066158 -26.235986 -6.483767 9.537837 3.928628 3.466452 -10.690077 0.000000 0.000000 0.000000 3.178323 8.041957 -0.975977 3.409877 3.679781 3.543354 21.440831 4.037225 1.722419 0.206830 -0.469883 0.024001 0.000000 0.000000 0.000000 20.730717 6.156958 1.505026 -15.879485 1.816723 -11.157724 3.004961 -71.406622 3.101684 0.000000 0.000000 0.000000 20.988282 4.147263 0.696540 -0.503933 -17.001975 1.670062 -1.496758 0.886211 -4.774819 -10.608600 -7.337883 -60.792550 -0.683369 -41.700224 -7.991966 0.000000 0.000000 0.000000 22.699509 5.250063 1.402326 7.665846 22.761201 -7.819875 -2.500573 2.154565 11.720652 -54.437735 3.491838 46.238687 -44.155223 73.688035 34.930469 0.000000 0.000000 0.000000 
9.388434 89.188416 119.669167 0.000000 0.000000 0.000000 3.354516 1.506533 -2.092566 -41.748766 11.650654 8.683955 23.476526 -3.025125 9.893118 7.613048 -12.115571 -6.975192 0.886093 -3.663346 5.714728 0.000000 0.000000 0.000000 4.272722 3.570308 -1.938822 -5.593021 8.619901 6.594949 27.613685 0.989404 -0.545142 -25.388018 -6.037968 8.672829 5.968389 2.853957 -11.583303 0.000000 0.000000 0.000000 1.557301 8.997202 -1.839108 3.079591 3.358044 3.681427 20.539770 3.654872 1.785214 0.173508 -0.490808 0.022299 0.000000 0.000000 0.000000 19.990565 5.870586 1.600819 -17.266237 0.942655 -11.233423 4.264116 -72.351087 1.388472 0.000000 0.000000 0.000000 20.105478 3.849419 0.751376 -0.210162 -15.331102 1.554188 -1.463169 0.752889 -4.818472 -12.341901 -6.323264 -62.653107 0.621425 -36.845449 -7.251958 0.000000 0.000000 0.000000 21.965895 4.886465 1.455209 7.010355 21.387103 -5.880953 -1.846940 1.551109 11.049880 -57.155873 3.733393 44.945052 -43.936787 74.633668 34.794599 0.000000 0.000000 0.000000 
8.955993 89.333733 118.014748 0.000000 0.000000 0.000000 1.843248 2.325826 -2.600279 -39.387669 11.683313 9.712229 24.600379 -0.429239 9.382566 3.935557 -8.455375 -8.508488 -0.076459 -4.251364 6.626171 0.000000 0.000000 0.000000 2.727115 4.650739 -2.373060 -5.481039 8.010228 7.062120 27.373899 0.562349 -0.175306 -24.743224 -6.283475 7.751371 7.713173 2.311966 -12.255163 0.000000 0.000000 0.000000 0.036105 10.283505 -2.466408 2.790251 2.932242 3.774402 19.675280 3.167261 1.798678 0.151575 -0.529726 0.041126 0.000000 0.000000 0.000000 19.205211 5.479813 1.656832 -18.584149 0.050050 -11.240800 5.754858 -73.172233 0.161499 0.000000 0.000000 0.000000 19.284179 3.464809 0.769834 0.123121 -13.687435 1.396256 -1.498381 0.741314 -4.825291 -14.036908 -5.418005 -64.077522 1.663803 -31.964076 -6.771010 0.000000 0.000000 0.000000 21.320557 4.426784 1.429283 6.417967 19.924336 -3.920249 -1.519741 0.918307 10.539334 -61.137570 3.464985 43.299732 -45.047024 75.355927 36.283150 0.000000 0.000000 0.000000 
8.575032 89.364418 116.230095 0.000000 0.000000 0.000000 0.578794 3.684049 -3.000059 -37.730641 10.959185 10.620307 27.396719 1.728460 8.474552 1.614316 -5.191296 -10.572410 0.129667 -4.672811 6.709836 0.000000 0.000000 0.000000 1.255109 6.167490 -2.707909 -5.628315 7.512883 7.619709 27.520637 0.169742 0.032542 -23.919375 -7.010178 7.430425 8.435229 1.959990 -12.769481 0.000000 0.000000 0.000000 -1.298508 11.851626 -2.930428 2.553163 2.411487 3.897261 18.828060 2.554515 1.808278 0.139742 -0.552030 0.065553 0.000000 0.000000 0.000000 18.339140 4.968461 1.714582 -19.735231 -0.841779 -11.083502 7.794911 -73.772013 -0.286723 0.000000 0.000000 0.000000 18.488409 2.983531 0.794999 0.490136 -12.166608 1.188836 -1.710127 0.800921 -4.937841 -15.501396 -4.410095 -65.175004 2.403845 -27.989762 -6.475962 0.000000 0.000000 0.000000 20.697100 3.860663 1.378349 5.954237 18.409938 -2.205304 -1.116953 0.494235 10.172054 -66.099805 2.503159 41.366296 -50.145101 76.432207 42.026441 0.000000 0.000000 0.000000 
